<svg viewBox="0 0 400 240" role="img" aria-labelledby="p3-name" preserveAspectRatio="xMidYMid meet"><rect class="gaprect" x="123.5" y="14" width="10.7" height="200"/><rect class="gaprect" x="176.6" y="14" width="21.2" height="200"/><line class="seam" x1="112.9" y1="14" x2="112.9" y2="214"/><line class="axis" x1="44" y1="14" x2="44" y2="214"/><line class="axis" x1="44" y1="214" x2="394" y2="214"/><line class="tickline" x1="41" y1="214" x2="44" y2="214"/><text class="ticklabel" x="39" y="217" text-anchor="end">0</text><line class="tickline" x1="41" y1="147.3" x2="44" y2="147.3"/><text class="ticklabel" x="39" y="150.3" text-anchor="end">50</text><line class="tickline" x1="41" y1="80.7" x2="44" y2="80.7"/><text class="ticklabel" x="39" y="83.7" text-anchor="end">100</text><line class="tickline" x1="41" y1="14" x2="44" y2="14"/><text class="ticklabel" x="39" y="17" text-anchor="end">150 mm</text><line class="tickline" x1="44" y1="214" x2="44" y2="217"/><text class="ticklabel" x="44" y="228" text-anchor="middle">1990</text><line class="tickline" x1="150.1" y1="214" x2="150.1" y2="217"/><text class="ticklabel" x="150.1" y="228" text-anchor="middle">2000</text><line class="tickline" x1="256.1" y1="214" x2="256.1" y2="217"/><text class="ticklabel" x="256.1" y="228" text-anchor="middle">2010</text><line class="tickline" x1="362.2" y1="214" x2="362.2" y2="217"/><text class="ticklabel" x="362.2" y="228" text-anchor="middle">2020</text><text class="axislabel" x="50" y="10" text-anchor="start">heaviest single day (from zero)</text><line class="meanline" x1="44" y1="156.7" x2="86.4" y2="156.7"/><line class="meanline" x1="341" y1="118" x2="394" y2="118"/><line class="stem" x1="44" y1="214" x2="44" y2="155.3"/><circle class="dot" cx="44" cy="155.3" r="3.2"/><line class="stem" x1="54.6" y1="214" x2="54.6" y2="162"/><circle class="dot" cx="54.6" cy="162" r="3.2"/><line class="stem" x1="65.2" y1="214" x2="65.2" y2="151.3"/><circle class="dot" cx="65.2" cy="151.3" r="3.2"/><line class="stem" x1="75.8" y1="214" x2="75.8" y2="158"/><circle class="dot" cx="75.8" cy="158" r="3.2"/><line class="stem" x1="86.4" y1="214" x2="86.4" y2="154"/><circle class="dot" cx="86.4" cy="154" r="3.2"/><line class="stem" x1="97" y1="214" x2="97" y2="159.3"/><circle class="dot" cx="97" cy="159.3" r="3.2"/><line class="stem" x1="107.6" y1="214" x2="107.6" y2="150"/><circle class="dot" cx="107.6" cy="150" r="3.2"/><line class="stem" x1="118.2" y1="214" x2="118.2" y2="152.7"/><circle class="dot" cx="118.2" cy="152.7" r="3.2"/><line class="stem" x1="139.5" y1="214" x2="139.5" y2="147.3"/><circle class="dot" cx="139.5" cy="147.3" r="3.2"/><line class="stem" x1="150.1" y1="214" x2="150.1" y2="144.7"/><circle class="dot" cx="150.1" cy="144.7" r="3.2"/><line class="stem" x1="160.7" y1="214" x2="160.7" y2="155.3"/><circle class="dot" cx="160.7" cy="155.3" r="3.2"/><line class="stem" x1="171.3" y1="214" x2="171.3" y2="140.7"/><circle class="dot" cx="171.3" cy="140.7" r="3.2"/><line class="stem" x1="203.1" y1="214" x2="203.1" y2="143.3"/><circle class="dot" cx="203.1" cy="143.3" r="3.2"/><line class="stem" x1="213.7" y1="214" x2="213.7" y2="136.7"/><circle class="dot" cx="213.7" cy="136.7" r="3.2"/><line class="stem" x1="224.3" y1="214" x2="224.3" y2="146"/><circle class="dot" cx="224.3" cy="146" r="3.2"/><line class="stem" x1="234.9" y1="214" x2="234.9" y2="134"/><circle class="dot" cx="234.9" cy="134" r="3.2"/><line class="stem" x1="245.5" y1="214" x2="245.5" y2="139.3"/><circle class="dot" cx="245.5" cy="139.3" r="3.2"/><line class="stem" x1="256.1" y1="214" x2="256.1" y2="130"/><circle class="dot" cx="256.1" cy="130" r="3.2"/><line class="stem" x1="266.7" y1="214" x2="266.7" y2="142"/><circle class="dot" cx="266.7" cy="142" r="3.2"/><line class="stem" x1="277.3" y1="214" x2="277.3" y2="127.3"/><circle class="dot" cx="277.3" cy="127.3" r="3.2"/><line class="stem" x1="287.9" y1="214" x2="287.9" y2="135.3"/><circle class="dot" cx="287.9" cy="135.3" r="3.2"/><line class="stem" x1="298.5" y1="214" x2="298.5" y2="124.7"/><circle class="dot" cx="298.5" cy="124.7" r="3.2"/><line class="stem" x1="309.2" y1="214" x2="309.2" y2="132.7"/><circle class="dot" cx="309.2" cy="132.7" r="3.2"/><line class="stem" x1="319.8" y1="214" x2="319.8" y2="120.7"/><circle class="dot" cx="319.8" cy="120.7" r="3.2"/><line class="stem" x1="330.4" y1="214" x2="330.4" y2="128.7"/><circle class="dot" cx="330.4" cy="128.7" r="3.2"/><line class="stem" x1="341" y1="214" x2="341" y2="123.3"/><circle class="dot" cx="341" cy="123.3" r="3.2"/><line class="stem dashed" x1="351.6" y1="214" x2="351.6" y2="38"/><circle class="dot hollow" cx="351.6" cy="38" r="3.2"/><line class="stem" x1="362.2" y1="214" x2="362.2" y2="119.3"/><circle class="dot" cx="362.2" cy="119.3" r="3.2"/><line class="stem" x1="372.8" y1="214" x2="372.8" y2="122"/><circle class="dot" cx="372.8" cy="122" r="3.2"/><line class="stem" x1="383.4" y1="214" x2="383.4" y2="115.3"/><circle class="dot" cx="383.4" cy="115.3" r="3.2"/><line class="stem" x1="394" y1="214" x2="394" y2="112.7"/><circle class="dot" cx="394" cy="112.7" r="3.2"/><g class="keychip"><circle cx="112.9" cy="22" r="7"/><text x="112.9" y="25.2" text-anchor="middle">a</text></g><g class="keychip"><circle cx="187.2" cy="22" r="7"/><text x="187.2" y="25.2" text-anchor="middle">b</text></g><g class="keychip"><circle cx="319.8" cy="22" r="7"/><text x="319.8" y="25.2" text-anchor="middle">c</text></g><g class="keychip"><circle cx="351.6" cy="22" r="7"/><text x="351.6" y="25.2" text-anchor="middle">d</text></g></svg>
